<svg id="Capa_1" enable-background="new 0 0 512 512" height="512" viewBox="0 0 512 512" width="512" xmlns="http://www.w3.org/2000/svg"><g id="XMLID_2771_"><path id="XMLID_2810_" d="m335 182h167v240h-167z" fill="#ff7b79"/><g id="XMLID_2808_"><path id="XMLID_2809_" d="m383 226h119v80.59h-119z" fill="#ccf5fc"/></g><path id="XMLID_2805_" d="m10 143.5h325v279h-325z" fill="#fff"/><path id="XMLID_2802_" d="m10 143.5h325v279h-325z" fill="#fff"/><path id="XMLID_2801_" d="m10 377.5h325v45h-325z" fill="#8aa8bd"/><path id="XMLID_2800_" d="m107.479 236h36.001v-36h48v36h36v48h-36v36h-48v-36h-36.001z" fill="#ff7b79"/><g id="XMLID_2796_"><circle id="XMLID_2799_" cx="415" cy="422" fill="#8aa8bd" r="40"/><circle id="XMLID_2798_" cx="415" cy="422" fill="#a7bdcd" r="40"/><path id="XMLID_2797_" d="" fill="#8aa8bd"/></g><circle id="XMLID_2795_" cx="112" cy="422" fill="#a7bdcd" r="40"/><path id="XMLID_2780_" d="m418.5 138c-12.15 0-22 9.85-22 22v22h44v-22c0-12.15-9.85-22-22-22z" fill="#ffbdbc"/><g id="XMLID_797_"><path id="XMLID_799_" d="m112 412c-2.63 0-5.21 1.069-7.07 2.93-1.86 1.86-2.93 4.44-2.93 7.07s1.069 5.21 2.93 7.069c1.86 1.86 4.44 2.931 7.07 2.931s5.21-1.07 7.069-2.931c1.861-1.859 2.931-4.439 2.931-7.069s-1.07-5.21-2.931-7.07c-1.859-1.861-4.429-2.93-7.069-2.93z"/><path id="XMLID_855_" d="m415 412c-2.641 0-5.21 1.069-7.07 2.93-1.86 1.86-2.93 4.44-2.93 7.07s1.069 5.21 2.93 7.069c1.86 1.86 4.44 2.931 7.07 2.931s5.21-1.07 7.069-2.931c1.861-1.859 2.931-4.439 2.931-7.069s-1.07-5.21-2.931-7.07c-1.859-1.861-4.429-2.93-7.069-2.93z"/><path id="XMLID_856_" d="m96.149 153.5c2.631 0 5.21-1.07 7.07-2.931 1.86-1.859 2.93-4.439 2.93-7.069s-1.069-5.21-2.93-7.07c-1.86-1.86-4.439-2.93-7.07-2.93-2.63 0-5.21 1.069-7.069 2.93-1.86 1.86-2.931 4.44-2.931 7.07s1.07 5.21 2.931 7.069c1.859 1.861 4.44 2.931 7.069 2.931z"/><path id="XMLID_857_" d="m418.509 101.668c5.523 0 10-4.478 10-10v-41.668c0-5.522-4.477-10-10-10-5.522 0-10 4.478-10 10v41.668c0 5.522 4.477 10 10 10z"/><path id="XMLID_862_" d="m472.375 110.059c2.558 0 5.115-.976 7.067-2.926l16.798-16.782c3.907-3.903 3.91-10.235.007-14.142-3.904-3.909-10.235-3.91-14.142-.007l-16.798 16.782c-3.907 3.903-3.91 10.235-.007 14.142 1.954 1.955 4.515 2.933 7.075 2.933z"/><path id="XMLID_863_" d="m357.421 107.048c1.953 1.955 4.513 2.933 7.074 2.933 2.558 0 5.115-.976 7.067-2.926 3.907-3.903 3.91-10.235.007-14.142l-16.668-16.684c-3.903-3.907-10.234-3.91-14.142-.007-3.907 3.903-3.91 10.235-.007 14.142z"/><path id="XMLID_872_" d="m502 172h-51.5v-12c0-17.645-14.355-32-32-32s-32 14.355-32 32v12h-41.5v-28.5c0-5.523-4.478-10-10-10h-193.85c-5.523 0-10 4.477-10 10s4.477 10 10 10h183.85v214h-305v-214h31c5.522 0 10-4.477 10-10s-4.478-10-10-10h-41c-5.523 0-10 4.477-10 10v279c0 5.522 4.477 10 10 10h53.118c4.839 22.544 24.913 39.5 48.882 39.5s44.044-16.956 48.882-39.5h205.237c4.838 22.544 24.912 39.5 48.881 39.5 24.147 0 44.348-17.205 48.994-40h38.006c5.522 0 10-4.478 10-10v-240c0-5.523-4.478-10-10-10zm-109 124.59v-60.59h39.5v60.59zm59.5-60.59h39.5v60.59h-39.5zm-46-76c0-6.617 5.383-12 12-12s12 5.383 12 12v12h-24zm-81.5 252.5h-163.917c-1.852-9.588-6.452-18.202-12.945-25h176.862zm-305-25h55.861c-6.493 6.798-11.092 15.412-12.945 25h-42.916zm92 64.5c-16.542 0-30-13.458-30-30s13.458-30 30-30 30 13.458 30 30-13.458 30-30 30zm303 0c-16.542 0-30-13.458-30-30s13.458-30 30-30 30 13.458 30 30-13.458 30-30 30zm48.994-40c-4.646-22.795-24.847-40-48.994-40-24.322 0-44.632 17.459-49.083 40.5h-20.917v-220.5h147v24h-109c-5.522 0-10 4.477-10 10v80.59c0 5.522 4.478 10 10 10h109v95.41z"/><path id="XMLID_882_" d="m191.48 190h-48c-5.523 0-10 4.477-10 10v26h-26c-5.522 0-10 4.477-10 10v48c0 5.522 4.478 10 10 10h26v26c0 5.522 4.477 10 10 10h48c5.522 0 10-4.478 10-10v-26h26c5.522 0 10-4.478 10-10v-48c0-5.523-4.478-10-10-10h-26v-26c0-5.523-4.478-10-10-10zm26 56v28h-26c-5.523 0-10 4.478-10 10v26h-28v-26c0-5.522-4.478-10-10-10h-26v-28h26c5.522 0 10-4.477 10-10v-26h28v26c0 5.523 4.477 10 10 10z"/></g></g></svg>