<svg height="512pt" viewBox="0 -88 512 512" width="512pt" xmlns="http://www.w3.org/2000/svg"><path d="m416.667969 159.601562-30.238281-60.472656c-9.878907-19.761718-36.039063-35.929687-58.128907-35.929687h-144.601562c-22.089844 0-48.25 16.167969-58.128907 35.929687l-30.234374 60.472656" fill="#a8ebfa"/><path d="m386.429688 99.128906c-9.878907-19.761718-36.039063-35.929687-58.128907-35.929687h-72.296875v96.398437h160.664063zm0 0" fill="#76e2f8"/><path d="m304.203125 0h-96.402344c-8.28125 0-15 6.714844-15 15v48.199219c0 8.285156 6.71875 15 15 15h96.402344c8.28125 0 15-6.714844 15-15v-48.199219c0-8.285156-6.71875-15-15-15zm0 0" fill="#008adf"/><path d="m304.203125 0h-48.203125v78.199219h48.203125c8.28125 0 15-6.714844 15-15v-48.199219c0-8.285156-6.71875-15-15-15zm0 0" fill="#ff0059"/><path d="m456.835938 144.601562h-401.667969c-30.421875 0-55.167969 24.746094-55.167969 55.164063v32.132813c0 30.421874 24.746094 55.167968 55.167969 55.167968h401.667969c30.417968 0 55.164062-24.746094 55.164062-55.167968v-32.132813c0-30.417969-24.746094-55.164063-55.164062-55.164063zm0 0" fill="#008adf"/><path d="m456.835938 144.601562h-200.832032v142.464844h200.832032c30.417968 0 55.164062-24.746094 55.164062-55.167968v-32.132813c0-30.417969-24.746094-55.164063-55.164062-55.164063zm0 0" fill="#0065a3"/><path d="m399.847656 92.421875c-12.398437-24.800781-43.824218-44.222656-71.546875-44.222656h-144.601562c-27.722657 0-59.148438 19.421875-71.542969 44.21875l-26.09375 52.183593h33.542969l19.382812-38.765624c7.359375-14.722657 28.253907-27.636719 44.710938-27.636719h57.304687v66.398437h-44.109375v142.46875h118.210938v-142.464844h-44.101563v-66.402343h57.296875c16.460938 0 37.351563 12.914062 44.714844 27.636719l19.382813 38.765624h33.539062zm0 0" fill="#e7f0ef"/><path d="m399.847656 92.421875c-12.398437-24.800781-43.824218-44.222656-71.546875-44.222656h-72.296875v238.867187h59.101563v-142.464844h-44.101563v-66.402343h57.296875c16.460938 0 37.351563 12.914062 44.710938 27.636719l19.382812 38.765624h33.542969zm0 0" fill="#c5e1e6"/><path d="m424.699219 272.066406c0-26.621094-21.578125-48.199218-48.199219-48.199218-26.617188 0-48.195312 21.578124-48.195312 48.199218s21.578124 48.199219 48.195312 48.199219c26.621094 0 48.199219-21.578125 48.199219-48.199219zm0 0" fill="#6e61b7"/><path d="m376.503906 335.265625c-34.851562 0-63.199218-28.351563-63.199218-63.199219s28.347656-63.199218 63.199218-63.199218c34.84375 0 63.191406 28.351562 63.191406 63.199218s-28.347656 63.199219-63.191406 63.199219zm0-96.398437c-18.308594 0-33.199218 14.894531-33.199218 33.199218 0 18.304688 14.890624 33.199219 33.199218 33.199219 18.300782 0 33.191406-14.894531 33.191406-33.199219 0-18.304687-14.890624-33.199218-33.191406-33.199218zm0 0" fill="#4b2746"/><path d="m183.699219 272.066406c0-26.621094-21.578125-48.199218-48.199219-48.199218-26.617188 0-48.195312 21.578124-48.195312 48.199218s21.578124 48.199219 48.195312 48.199219c26.621094 0 48.199219-21.578125 48.199219-48.199219zm0 0" fill="#988fcc"/><path d="m135.503906 335.265625c-34.851562 0-63.199218-28.351563-63.199218-63.199219s28.347656-63.199218 63.199218-63.199218c34.84375 0 63.191406 28.351562 63.191406 63.199218s-28.347656 63.199219-63.191406 63.199219zm0-96.398437c-18.308594 0-33.199218 14.894531-33.199218 33.199218 0 18.304688 14.890624 33.199219 33.199218 33.199219 18.300782 0 33.191406-14.894531 33.191406-33.199219 0-18.304687-14.890624-33.199218-33.191406-33.199218zm0 0" fill="#613d5c"/></svg>