<?xml version="1.0"?>
<svg xmlns="http://www.w3.org/2000/svg" id="Icons" height="512px" viewBox="0 0 60 60" width="512px" class=""><g><path d="m48.24 31a23.991 23.991 0 1 0 -17.24 17.24z" fill="#568ba9" data-original="#568BA9" class="" style="fill:#E3E9ED" data-old_color="#568ba9"/><g fill="#315774"><circle cx="12" cy="13" r="2" data-original="#315774" class="active-path" style="fill:#E3E9ED" data-old_color="#315774"/><rect height="4" rx="2" width="22" x="18" y="11" data-original="#315774" class="active-path" style="fill:#E3E9ED" data-old_color="#315774"/><circle cx="12" cy="21" r="2" data-original="#315774" class="active-path" style="fill:#E3E9ED" data-old_color="#315774"/><rect height="4" rx="2" width="22" x="18" y="19" data-original="#315774" class="active-path" style="fill:#E3E9ED" data-old_color="#315774"/><circle cx="12" cy="29" r="2" data-original="#315774" class="active-path" style="fill:#E3E9ED" data-old_color="#315774"/><rect height="4" rx="2" width="22" x="18" y="27" data-original="#315774" class="active-path" style="fill:#E3E9ED" data-old_color="#315774"/><rect height="4" rx="2" width="22" x="18" y="35" data-original="#315774" class="active-path" style="fill:#E3E9ED" data-old_color="#315774"/><circle cx="12" cy="37" r="2" data-original="#315774" class="active-path" style="fill:#E3E9ED" data-old_color="#315774"/></g><rect fill="#62b29a" height="28" rx="3" width="28" x="31" y="31" data-original="#62B29A" class="" style="fill:#62B29A"/><path d="m12 10a3 3 0 1 0 3 3 3 3 0 0 0 -3-3zm0 4a1 1 0 1 1 1-1 1 1 0 0 1 -1 1z" fill="#373737" data-original="#373737" class="" style="fill:#374957" data-old_color="#373737"/><path d="m56 30h-15.184a2.966 2.966 0 0 0 .184-1 3 3 0 0 0 -3-3h-18a3 3 0 0 0 0 6h10.556a3.959 3.959 0 0 0 -.556 2h-10a3 3 0 0 0 0 6h10v7.441a23 23 0 1 1 18-22.441q0 .482-.02.959a1 1 0 0 0 .958 1.041 1.012 1.012 0 0 0 1.041-.958c.014-.342.021-.693.021-1.042a25.021 25.021 0 1 0 -20 24.491v6.509a4 4 0 0 0 4 4h22a4 4 0 0 0 4-4v-22a4 4 0 0 0 -4-4zm-37-1a1 1 0 0 1 1-1h18a1 1 0 0 1 0 2h-18a1 1 0 0 1 -1-1zm1 9a1 1 0 0 1 0-2h10v2zm38 18a2 2 0 0 1 -2 2h-22a2 2 0 0 1 -2-2v-22a2 2 0 0 1 2-2h22a2 2 0 0 1 2 2z" fill="#373737" data-original="#373737" class="" style="fill:#374957" data-old_color="#373737"/><path d="m38 10h-18a3 3 0 0 0 0 6h18a3 3 0 0 0 0-6zm0 4h-18a1 1 0 0 1 0-2h18a1 1 0 0 1 0 2z" fill="#373737" data-original="#373737" class="" style="fill:#374957" data-old_color="#373737"/><path d="m12 18a3 3 0 1 0 3 3 3 3 0 0 0 -3-3zm0 4a1 1 0 1 1 1-1 1 1 0 0 1 -1 1z" fill="#373737" data-original="#373737" class="" style="fill:#374957" data-old_color="#373737"/><path d="m38 18h-18a3 3 0 0 0 0 6h18a3 3 0 0 0 0-6zm0 4h-18a1 1 0 0 1 0-2h18a1 1 0 0 1 0 2z" fill="#373737" data-original="#373737" class="" style="fill:#374957" data-old_color="#373737"/><path d="m12 26a3 3 0 1 0 3 3 3 3 0 0 0 -3-3zm0 4a1 1 0 1 1 1-1 1 1 0 0 1 -1 1z" fill="#373737" data-original="#373737" class="" style="fill:#374957" data-old_color="#373737"/><path d="m12 34a3 3 0 1 0 3 3 3 3 0 0 0 -3-3zm0 4a1 1 0 1 1 1-1 1 1 0 0 1 -1 1z" fill="#373737" data-original="#373737" class="" style="fill:#374957" data-old_color="#373737"/><path d="m52.2 36.4-11.308 15.078-3.185-3.185a1 1 0 0 0 -1.414 1.414l4 4a1 1 0 0 0 .707.293h.071a1 1 0 0 0 .729-.4l12-16a1 1 0 0 0 -1.6-1.2z" fill="#373737" data-original="#373737" class="" style="fill:#374957" data-old_color="#373737"/></g> </svg>
