<svg id="Capa_1" enable-background="new 0 0 512 512" height="512" viewBox="0 0 512 512" width="512" xmlns="http://www.w3.org/2000/svg"><g><path d="m459.136 176.291v-61.402h-39.519v-60.505l-214.965 1.18-18.05-31.472h-186.602v405.813h61.004v58.004h450.996v-311.618zm-69.519-91.742v30.339h-150.942l-16.872-29.418zm-359.617-30.457h139.224l52.073 90.796h207.839v255.016h-399.136zm452 403.816h-390.996v-28.004h368.132v-223.613h22.864z"/><path d="m323.454 342.802h-23.942v-107.101h-80.557v107.101h-25.067v-151.804h-81.558v151.804h-26.666v-186.991h-30v216.991h348.348v-100.184h-80.558zm-74.499-77.101h20.557v77.101h-20.557zm-106.625-44.703h21.558v121.804h-21.558zm211.124 81.62h20.558v40.184h-20.558z"/></g></svg>